<svg xmlns="http://www.w3.org/2000/svg" width="11" height="9" viewBox="0 0 11 9" fill="none">
  <path d="M7.64634 2.65807L3.92436 1.08338C2.18632 0.348057 1.31729 -0.0196074 0.877449 0.252967C0.707697 0.358163 0.573331 0.511777 0.491659 0.694017C0.280039 1.16622 0.760076 1.97859 1.72015 3.60333C1.94296 3.98039 2.05436 4.16892 2.08044 4.37362C2.09113 4.45753 2.09113 4.54246 2.08044 4.62638C2.05436 4.83108 1.94296 5.01961 1.72015 5.39667C0.760076 7.02141 0.280039 7.83378 0.491659 8.30598C0.573331 8.48822 0.707697 8.64184 0.877449 8.74703C1.31729 9.01961 2.18632 8.65194 3.92436 7.91662L7.64634 6.34193C9.50446 5.5558 10.4335 5.16274 10.4335 4.5C10.4335 3.83726 9.50447 3.4442 7.64634 2.65807Z" fill="#1D3557"/>
</svg>